# xmcd
#
# Track frame offsets: 
#        166
#        7983
#        28741
#        50589
#        79974
#        104107
#        130442
#        143583
#        157073
#        204415
#        220398
#        251051
#        272705
#
# Disc length: 4077 seconds
#
# Revision: 0
# Processed by: cddbd v1.5.2PL0 Copyright (c) Steve Scherf et al.
# Submitted via: ExactAudioCopy v0.95b3
#
DISCID=c40feb0d
DTITLE=Tribe Of Millions - Puddin Head's Live Can Of Whup Ass
DYEAR=1998
DGENRE=Funk
TTITLE0=3
TTITLE1=Crush
TTITLE2=Mars
TTITLE3=Stanley Jenkins
TTITLE4=Weave
TTITLE5=Talk To Me
TTITLE6=Shine
TTITLE7=She's A Lady
TTITLE8=Hole In My Heart
TTITLE9=What's Your Name
TTITLE10=Like A Rolling Stone
TTITLE11=Hole In My Heart (Radio Edit)
TTITLE12=Untitled
EXTD=
EXTT0=
EXTT1=
EXTT2=
EXTT3=
EXTT4=
EXTT5=
EXTT6=
EXTT7=
EXTT8=
EXTT9=
EXTT10=
EXTT11=
EXTT12=
PLAYORDER=
